<mxfile host="www.draw.io" modified="2020-03-31T03:03:19.073Z" agent="5.0 (Macintosh; Intel Mac OS X 10_15_3) AppleWebKit/537.36 (KHTML, like Gecko) Chrome/80.0.3987.149 Safari/537.36" etag="Ij5HAKDdjoHyjRwc5F6z" version="12.9.4" type="github" pages="2">
  <diagram id="tLRsJGVEqHHKasmLKiZ0" name="HoneyBee">
    <mxGraphModel dx="772" dy="483" grid="1" gridSize="10" guides="1" tooltips="1" connect="1" arrows="1" fold="1" page="1" pageScale="1" pageWidth="2400" pageHeight="2400" math="0" shadow="0" extFonts="Computer Modern^https://fonts.googleapis.com/css?family=Computer+Modern">
      <root>
        <mxCell id="yucTcaGxGMNIJf8wDbqY-0" />
        <mxCell id="yucTcaGxGMNIJf8wDbqY-1" parent="yucTcaGxGMNIJf8wDbqY-0" />
        <mxCell id="uqWX5sFfroWvKUeDKfwF-4" style="edgeStyle=orthogonalEdgeStyle;rounded=0;orthogonalLoop=1;jettySize=auto;html=1;exitX=1;exitY=0.5;exitDx=0;exitDy=0;endArrow=none;endFill=0;strokeWidth=3;fontFamily=Computer Modern;entryX=0;entryY=0.5;entryDx=0;entryDy=0;" parent="yucTcaGxGMNIJf8wDbqY-1" source="uqWX5sFfroWvKUeDKfwF-0" target="uqWX5sFfroWvKUeDKfwF-6" edge="1">
          <mxGeometry relative="1" as="geometry">
            <mxPoint x="560" y="260" as="targetPoint" />
          </mxGeometry>
        </mxCell>
        <mxCell id="uqWX5sFfroWvKUeDKfwF-0" value="" style="whiteSpace=wrap;html=1;aspect=fixed;align=left;fillColor=#FBBC05;strokeColor=#000000;strokeWidth=2;fontFamily=Computer Modern;" parent="yucTcaGxGMNIJf8wDbqY-1" vertex="1">
          <mxGeometry x="280" y="160" width="200" height="200" as="geometry" />
        </mxCell>
        <mxCell id="uqWX5sFfroWvKUeDKfwF-1" value="&lt;b&gt;&lt;font style=&quot;font-size: 28px&quot;&gt;HoneyBee&lt;/font&gt;&lt;br&gt;&lt;/b&gt;" style="text;html=1;strokeColor=none;fillColor=none;align=center;verticalAlign=middle;whiteSpace=wrap;rounded=0;shadow=0;glass=0;comic=0;fontSize=22;fontColor=#000000;fontFamily=Computer Modern;" parent="yucTcaGxGMNIJf8wDbqY-1" vertex="1">
          <mxGeometry x="360" y="250" width="40" height="20" as="geometry" />
        </mxCell>
        <mxCell id="uqWX5sFfroWvKUeDKfwF-6" value="&lt;span style=&quot;font-size: 18px&quot;&gt;Collisions&lt;/span&gt;" style="text;html=1;strokeColor=none;fillColor=none;align=center;verticalAlign=middle;whiteSpace=wrap;rounded=0;fontFamily=Computer Modern;" parent="yucTcaGxGMNIJf8wDbqY-1" vertex="1">
          <mxGeometry x="590" y="245" width="100" height="30" as="geometry" />
        </mxCell>
        <mxCell id="uqWX5sFfroWvKUeDKfwF-16" value="" style="endArrow=none;html=1;strokeWidth=1;fontFamily=Computer Modern;fontSize=8;" parent="yucTcaGxGMNIJf8wDbqY-1" edge="1">
          <mxGeometry width="50" height="50" relative="1" as="geometry">
            <mxPoint x="210" y="210" as="sourcePoint" />
            <mxPoint x="230" y="190" as="targetPoint" />
          </mxGeometry>
        </mxCell>
        <mxCell id="uqWX5sFfroWvKUeDKfwF-17" value="" style="endArrow=none;html=1;strokeWidth=1;fontFamily=Computer Modern;fontSize=8;" parent="yucTcaGxGMNIJf8wDbqY-1" edge="1">
          <mxGeometry width="50" height="50" relative="1" as="geometry">
            <mxPoint x="210" y="230" as="sourcePoint" />
            <mxPoint x="230" y="210" as="targetPoint" />
          </mxGeometry>
        </mxCell>
        <mxCell id="uqWX5sFfroWvKUeDKfwF-18" value="" style="endArrow=none;html=1;strokeWidth=1;fontFamily=Computer Modern;fontSize=8;" parent="yucTcaGxGMNIJf8wDbqY-1" edge="1">
          <mxGeometry width="50" height="50" relative="1" as="geometry">
            <mxPoint x="210" y="250" as="sourcePoint" />
            <mxPoint x="230" y="230" as="targetPoint" />
          </mxGeometry>
        </mxCell>
        <mxCell id="uqWX5sFfroWvKUeDKfwF-23" style="edgeStyle=orthogonalEdgeStyle;rounded=0;orthogonalLoop=1;jettySize=auto;html=1;exitX=1;exitY=0.5;exitDx=0;exitDy=0;entryX=-0.005;entryY=0.2;entryDx=0;entryDy=0;entryPerimeter=0;startArrow=none;startFill=0;endArrow=none;endFill=0;strokeWidth=2;fontFamily=Computer Modern;fontSize=8;" parent="yucTcaGxGMNIJf8wDbqY-1" source="uqWX5sFfroWvKUeDKfwF-22" target="uqWX5sFfroWvKUeDKfwF-0" edge="1">
          <mxGeometry relative="1" as="geometry">
            <Array as="points">
              <mxPoint x="140" y="220" />
              <mxPoint x="140" y="200" />
            </Array>
          </mxGeometry>
        </mxCell>
        <mxCell id="uqWX5sFfroWvKUeDKfwF-24" style="edgeStyle=orthogonalEdgeStyle;rounded=0;orthogonalLoop=1;jettySize=auto;html=1;exitX=1;exitY=0.5;exitDx=0;exitDy=0;entryX=0;entryY=0.3;entryDx=0;entryDy=0;entryPerimeter=0;startArrow=none;startFill=0;endArrow=none;endFill=0;strokeWidth=2;fontFamily=Computer Modern;fontSize=8;" parent="yucTcaGxGMNIJf8wDbqY-1" source="uqWX5sFfroWvKUeDKfwF-22" target="uqWX5sFfroWvKUeDKfwF-0" edge="1">
          <mxGeometry relative="1" as="geometry" />
        </mxCell>
        <mxCell id="uqWX5sFfroWvKUeDKfwF-26" style="edgeStyle=orthogonalEdgeStyle;rounded=0;orthogonalLoop=1;jettySize=auto;html=1;exitX=1;exitY=0.5;exitDx=0;exitDy=0;entryX=0.005;entryY=0.4;entryDx=0;entryDy=0;entryPerimeter=0;startArrow=none;startFill=0;endArrow=none;endFill=0;strokeWidth=2;fontFamily=Computer Modern;fontSize=8;" parent="yucTcaGxGMNIJf8wDbqY-1" source="uqWX5sFfroWvKUeDKfwF-22" target="uqWX5sFfroWvKUeDKfwF-0" edge="1">
          <mxGeometry relative="1" as="geometry">
            <Array as="points">
              <mxPoint x="140" y="220" />
              <mxPoint x="140" y="240" />
            </Array>
          </mxGeometry>
        </mxCell>
        <mxCell id="uqWX5sFfroWvKUeDKfwF-22" value="&lt;span style=&quot;font-size: 18px&quot;&gt;Point 1&lt;/span&gt;" style="text;html=1;strokeColor=none;fillColor=none;align=center;verticalAlign=middle;whiteSpace=wrap;rounded=0;fontFamily=Computer Modern;" parent="yucTcaGxGMNIJf8wDbqY-1" vertex="1">
          <mxGeometry x="40" y="200" width="60" height="40" as="geometry" />
        </mxCell>
        <mxCell id="uqWX5sFfroWvKUeDKfwF-27" value="&lt;span style=&quot;font-size: 14px;&quot;&gt;x&lt;/span&gt;" style="text;html=1;strokeColor=none;fillColor=none;align=left;verticalAlign=middle;whiteSpace=wrap;rounded=0;fontFamily=Computer Modern;fontSize=14;" parent="yucTcaGxGMNIJf8wDbqY-1" vertex="1">
          <mxGeometry x="140" y="180" width="30" height="20" as="geometry" />
        </mxCell>
        <mxCell id="uqWX5sFfroWvKUeDKfwF-28" value="&lt;span style=&quot;font-size: 14px;&quot;&gt;y&lt;/span&gt;" style="text;html=1;strokeColor=none;fillColor=none;align=left;verticalAlign=middle;whiteSpace=wrap;rounded=0;fontFamily=Computer Modern;fontSize=14;" parent="yucTcaGxGMNIJf8wDbqY-1" vertex="1">
          <mxGeometry x="140" y="200" width="30" height="20" as="geometry" />
        </mxCell>
        <mxCell id="uqWX5sFfroWvKUeDKfwF-29" value="&lt;span style=&quot;font-size: 14px;&quot;&gt;z&lt;/span&gt;" style="text;html=1;strokeColor=none;fillColor=none;align=left;verticalAlign=middle;whiteSpace=wrap;rounded=0;fontFamily=Computer Modern;fontSize=14;" parent="yucTcaGxGMNIJf8wDbqY-1" vertex="1">
          <mxGeometry x="140" y="220" width="30" height="20" as="geometry" />
        </mxCell>
        <mxCell id="uqWX5sFfroWvKUeDKfwF-30" value="" style="endArrow=none;html=1;strokeWidth=1;fontFamily=Computer Modern;fontSize=8;" parent="yucTcaGxGMNIJf8wDbqY-1" edge="1">
          <mxGeometry width="50" height="50" relative="1" as="geometry">
            <mxPoint x="208.9999999999999" y="300" as="sourcePoint" />
            <mxPoint x="228.9999999999999" y="280" as="targetPoint" />
          </mxGeometry>
        </mxCell>
        <mxCell id="uqWX5sFfroWvKUeDKfwF-31" value="" style="endArrow=none;html=1;strokeWidth=1;fontFamily=Computer Modern;fontSize=8;" parent="yucTcaGxGMNIJf8wDbqY-1" edge="1">
          <mxGeometry width="50" height="50" relative="1" as="geometry">
            <mxPoint x="208.9999999999999" y="320" as="sourcePoint" />
            <mxPoint x="228.9999999999999" y="300" as="targetPoint" />
          </mxGeometry>
        </mxCell>
        <mxCell id="uqWX5sFfroWvKUeDKfwF-32" value="" style="endArrow=none;html=1;strokeWidth=1;fontFamily=Computer Modern;fontSize=8;" parent="yucTcaGxGMNIJf8wDbqY-1" edge="1">
          <mxGeometry width="50" height="50" relative="1" as="geometry">
            <mxPoint x="208.9999999999999" y="340" as="sourcePoint" />
            <mxPoint x="228.9999999999999" y="320" as="targetPoint" />
          </mxGeometry>
        </mxCell>
        <mxCell id="uqWX5sFfroWvKUeDKfwF-33" style="edgeStyle=orthogonalEdgeStyle;rounded=0;orthogonalLoop=1;jettySize=auto;html=1;exitX=1;exitY=0.5;exitDx=0;exitDy=0;entryX=-0.005;entryY=0.2;entryDx=0;entryDy=0;entryPerimeter=0;startArrow=none;startFill=0;endArrow=none;endFill=0;strokeWidth=2;fontFamily=Computer Modern;fontSize=8;" parent="yucTcaGxGMNIJf8wDbqY-1" source="uqWX5sFfroWvKUeDKfwF-36" edge="1">
          <mxGeometry relative="1" as="geometry">
            <mxPoint x="277.9999999999999" y="290" as="targetPoint" />
            <Array as="points">
              <mxPoint x="139" y="310" />
              <mxPoint x="139" y="290" />
            </Array>
          </mxGeometry>
        </mxCell>
        <mxCell id="uqWX5sFfroWvKUeDKfwF-34" style="edgeStyle=orthogonalEdgeStyle;rounded=0;orthogonalLoop=1;jettySize=auto;html=1;exitX=1;exitY=0.5;exitDx=0;exitDy=0;entryX=0;entryY=0.3;entryDx=0;entryDy=0;entryPerimeter=0;startArrow=none;startFill=0;endArrow=none;endFill=0;strokeWidth=2;fontFamily=Computer Modern;fontSize=8;" parent="yucTcaGxGMNIJf8wDbqY-1" source="uqWX5sFfroWvKUeDKfwF-36" edge="1">
          <mxGeometry relative="1" as="geometry">
            <mxPoint x="278.9999999999999" y="310" as="targetPoint" />
          </mxGeometry>
        </mxCell>
        <mxCell id="uqWX5sFfroWvKUeDKfwF-35" style="edgeStyle=orthogonalEdgeStyle;rounded=0;orthogonalLoop=1;jettySize=auto;html=1;exitX=1;exitY=0.5;exitDx=0;exitDy=0;entryX=0.005;entryY=0.4;entryDx=0;entryDy=0;entryPerimeter=0;startArrow=none;startFill=0;endArrow=none;endFill=0;strokeWidth=2;fontFamily=Computer Modern;fontSize=8;" parent="yucTcaGxGMNIJf8wDbqY-1" source="uqWX5sFfroWvKUeDKfwF-36" edge="1">
          <mxGeometry relative="1" as="geometry">
            <mxPoint x="280" y="330" as="targetPoint" />
            <Array as="points">
              <mxPoint x="139" y="310" />
              <mxPoint x="139" y="330" />
            </Array>
          </mxGeometry>
        </mxCell>
        <mxCell id="uqWX5sFfroWvKUeDKfwF-36" value="&lt;span style=&quot;font-size: 18px&quot;&gt;Point 2&lt;/span&gt;" style="text;html=1;strokeColor=none;fillColor=none;align=center;verticalAlign=middle;whiteSpace=wrap;rounded=0;fontFamily=Computer Modern;" parent="yucTcaGxGMNIJf8wDbqY-1" vertex="1">
          <mxGeometry x="39" y="290" width="60" height="40" as="geometry" />
        </mxCell>
        <mxCell id="uqWX5sFfroWvKUeDKfwF-37" value="&lt;span style=&quot;font-size: 14px;&quot;&gt;x&lt;/span&gt;" style="text;html=1;strokeColor=none;fillColor=none;align=left;verticalAlign=middle;whiteSpace=wrap;rounded=0;fontFamily=Computer Modern;fontSize=14;" parent="yucTcaGxGMNIJf8wDbqY-1" vertex="1">
          <mxGeometry x="139" y="270" width="30" height="20" as="geometry" />
        </mxCell>
        <mxCell id="uqWX5sFfroWvKUeDKfwF-38" value="&lt;span style=&quot;font-size: 14px;&quot;&gt;y&lt;/span&gt;" style="text;html=1;strokeColor=none;fillColor=none;align=left;verticalAlign=middle;whiteSpace=wrap;rounded=0;fontFamily=Computer Modern;fontSize=14;" parent="yucTcaGxGMNIJf8wDbqY-1" vertex="1">
          <mxGeometry x="139" y="290" width="30" height="20" as="geometry" />
        </mxCell>
        <mxCell id="uqWX5sFfroWvKUeDKfwF-39" value="&lt;span style=&quot;font-size: 14px;&quot;&gt;z&lt;/span&gt;" style="text;html=1;strokeColor=none;fillColor=none;align=left;verticalAlign=middle;whiteSpace=wrap;rounded=0;fontFamily=Computer Modern;fontSize=14;" parent="yucTcaGxGMNIJf8wDbqY-1" vertex="1">
          <mxGeometry x="139" y="310" width="30" height="20" as="geometry" />
        </mxCell>
        <mxCell id="uqWX5sFfroWvKUeDKfwF-40" value="&lt;span style=&quot;font-size: 14px&quot;&gt;&lt;i&gt;32&lt;/i&gt;&lt;/span&gt;" style="text;html=1;strokeColor=none;fillColor=none;align=left;verticalAlign=middle;whiteSpace=wrap;rounded=0;fontFamily=Computer Modern;fontSize=14;" parent="yucTcaGxGMNIJf8wDbqY-1" vertex="1">
          <mxGeometry x="230" y="180" width="20" height="20" as="geometry" />
        </mxCell>
        <mxCell id="uqWX5sFfroWvKUeDKfwF-44" value="&lt;span style=&quot;font-size: 14px&quot;&gt;&lt;i&gt;32&lt;/i&gt;&lt;/span&gt;" style="text;html=1;strokeColor=none;fillColor=none;align=left;verticalAlign=middle;whiteSpace=wrap;rounded=0;fontFamily=Computer Modern;fontSize=14;" parent="yucTcaGxGMNIJf8wDbqY-1" vertex="1">
          <mxGeometry x="230" y="200" width="20" height="20" as="geometry" />
        </mxCell>
        <mxCell id="uqWX5sFfroWvKUeDKfwF-45" value="&lt;span style=&quot;font-size: 14px&quot;&gt;&lt;i&gt;32&lt;/i&gt;&lt;/span&gt;" style="text;html=1;strokeColor=none;fillColor=none;align=left;verticalAlign=middle;whiteSpace=wrap;rounded=0;fontFamily=Computer Modern;fontSize=14;" parent="yucTcaGxGMNIJf8wDbqY-1" vertex="1">
          <mxGeometry x="230" y="220" width="20" height="20" as="geometry" />
        </mxCell>
        <mxCell id="uqWX5sFfroWvKUeDKfwF-46" value="&lt;span style=&quot;font-size: 14px&quot;&gt;&lt;i&gt;32&lt;/i&gt;&lt;/span&gt;" style="text;html=1;strokeColor=none;fillColor=none;align=left;verticalAlign=middle;whiteSpace=wrap;rounded=0;fontFamily=Computer Modern;fontSize=14;" parent="yucTcaGxGMNIJf8wDbqY-1" vertex="1">
          <mxGeometry x="230" y="270" width="20" height="20" as="geometry" />
        </mxCell>
        <mxCell id="uqWX5sFfroWvKUeDKfwF-47" value="&lt;span style=&quot;font-size: 14px&quot;&gt;&lt;i&gt;32&lt;/i&gt;&lt;/span&gt;" style="text;html=1;strokeColor=none;fillColor=none;align=left;verticalAlign=middle;whiteSpace=wrap;rounded=0;fontFamily=Computer Modern;fontSize=14;" parent="yucTcaGxGMNIJf8wDbqY-1" vertex="1">
          <mxGeometry x="230" y="290" width="20" height="20" as="geometry" />
        </mxCell>
        <mxCell id="uqWX5sFfroWvKUeDKfwF-48" value="&lt;span style=&quot;font-size: 14px&quot;&gt;&lt;i&gt;32&lt;/i&gt;&lt;/span&gt;" style="text;html=1;strokeColor=none;fillColor=none;align=left;verticalAlign=middle;whiteSpace=wrap;rounded=0;fontFamily=Computer Modern;fontSize=14;" parent="yucTcaGxGMNIJf8wDbqY-1" vertex="1">
          <mxGeometry x="230" y="310" width="20" height="20" as="geometry" />
        </mxCell>
        <mxCell id="uqWX5sFfroWvKUeDKfwF-49" value="" style="endArrow=none;html=1;strokeWidth=1;fontFamily=Computer Modern;fontSize=8;" parent="yucTcaGxGMNIJf8wDbqY-1" edge="1">
          <mxGeometry width="50" height="50" relative="1" as="geometry">
            <mxPoint x="519.9999999999999" y="270" as="sourcePoint" />
            <mxPoint x="539.9999999999999" y="250" as="targetPoint" />
          </mxGeometry>
        </mxCell>
        <mxCell id="uqWX5sFfroWvKUeDKfwF-50" value="&lt;span style=&quot;font-size: 14px&quot;&gt;&lt;i&gt;64&lt;/i&gt;&lt;/span&gt;" style="text;html=1;strokeColor=none;fillColor=none;align=left;verticalAlign=middle;whiteSpace=wrap;rounded=0;fontFamily=Computer Modern;fontSize=14;" parent="yucTcaGxGMNIJf8wDbqY-1" vertex="1">
          <mxGeometry x="540" y="240" width="20" height="20" as="geometry" />
        </mxCell>
        <mxCell id="uqWX5sFfroWvKUeDKfwF-51" value="&lt;span style=&quot;font-size: 18px&quot;&gt;&lt;font color=&quot;#ea4335&quot;&gt;1&lt;/font&gt;00&lt;font color=&quot;#ea4335&quot;&gt;1&lt;/font&gt; 0000 0&lt;font color=&quot;#ea4335&quot;&gt;111 1&lt;/font&gt;00&lt;font color=&quot;#ea4335&quot;&gt;1&lt;/font&gt; &lt;font color=&quot;#ea4335&quot;&gt;1111&lt;/font&gt;&lt;/span&gt;" style="text;html=1;strokeColor=none;fillColor=none;align=center;verticalAlign=middle;whiteSpace=wrap;rounded=0;fontFamily=Computer Modern;" parent="yucTcaGxGMNIJf8wDbqY-1" vertex="1">
          <mxGeometry x="480" y="280" width="240" height="30" as="geometry" />
        </mxCell>
        <mxCell id="uqWX5sFfroWvKUeDKfwF-56" value="" style="edgeStyle=orthogonalEdgeStyle;rounded=0;orthogonalLoop=1;jettySize=auto;html=1;startArrow=none;startFill=0;endArrow=none;endFill=0;strokeWidth=1;fontFamily=Computer Modern;fontSize=14;entryX=0.25;entryY=0;entryDx=0;entryDy=0;" parent="yucTcaGxGMNIJf8wDbqY-1" source="uqWX5sFfroWvKUeDKfwF-54" target="uqWX5sFfroWvKUeDKfwF-0" edge="1">
          <mxGeometry relative="1" as="geometry" />
        </mxCell>
        <mxCell id="uqWX5sFfroWvKUeDKfwF-54" value="Start" style="text;html=1;strokeColor=none;fillColor=none;align=center;verticalAlign=middle;whiteSpace=wrap;rounded=0;fontFamily=Computer Modern;fontSize=14;" parent="yucTcaGxGMNIJf8wDbqY-1" vertex="1">
          <mxGeometry x="310" y="90" width="40" height="20" as="geometry" />
        </mxCell>
        <mxCell id="uqWX5sFfroWvKUeDKfwF-58" style="edgeStyle=orthogonalEdgeStyle;rounded=0;orthogonalLoop=1;jettySize=auto;html=1;exitX=0.5;exitY=1;exitDx=0;exitDy=0;entryX=0.5;entryY=0;entryDx=0;entryDy=0;startArrow=none;startFill=0;endArrow=none;endFill=0;strokeWidth=1;fontFamily=Computer Modern;fontSize=14;" parent="yucTcaGxGMNIJf8wDbqY-1" source="uqWX5sFfroWvKUeDKfwF-57" target="uqWX5sFfroWvKUeDKfwF-0" edge="1">
          <mxGeometry relative="1" as="geometry" />
        </mxCell>
        <mxCell id="uqWX5sFfroWvKUeDKfwF-57" value="Done" style="text;html=1;strokeColor=none;fillColor=none;align=center;verticalAlign=middle;whiteSpace=wrap;rounded=0;fontFamily=Computer Modern;fontSize=14;" parent="yucTcaGxGMNIJf8wDbqY-1" vertex="1">
          <mxGeometry x="360" y="90" width="40" height="20" as="geometry" />
        </mxCell>
        <mxCell id="uqWX5sFfroWvKUeDKfwF-61" value="" style="edgeStyle=orthogonalEdgeStyle;rounded=0;orthogonalLoop=1;jettySize=auto;html=1;startArrow=none;startFill=0;endArrow=none;endFill=0;strokeWidth=1;fontFamily=Computer Modern;fontSize=14;entryX=0.75;entryY=0;entryDx=0;entryDy=0;" parent="yucTcaGxGMNIJf8wDbqY-1" source="uqWX5sFfroWvKUeDKfwF-59" target="uqWX5sFfroWvKUeDKfwF-0" edge="1">
          <mxGeometry relative="1" as="geometry" />
        </mxCell>
        <mxCell id="uqWX5sFfroWvKUeDKfwF-59" value="Idle" style="text;html=1;strokeColor=none;fillColor=none;align=center;verticalAlign=middle;whiteSpace=wrap;rounded=0;fontFamily=Computer Modern;fontSize=14;" parent="yucTcaGxGMNIJf8wDbqY-1" vertex="1">
          <mxGeometry x="410" y="90" width="40" height="20" as="geometry" />
        </mxCell>
      </root>
    </mxGraphModel>
  </diagram>
  <diagram id="uxAaTCyHR5zjSE7AZ_86" name="Timing">
    <mxGraphModel dx="368" dy="253" grid="1" gridSize="10" guides="1" tooltips="1" connect="1" arrows="1" fold="1" page="1" pageScale="1" pageWidth="2400" pageHeight="2400" math="0" shadow="0" extFonts="Computer Modern^https://fonts.googleapis.com/css?family=Computer+Modern">
      <root>
        <mxCell id="MPpw_sk_U3eVS9YFa5iW-0" />
        <mxCell id="MPpw_sk_U3eVS9YFa5iW-1" parent="MPpw_sk_U3eVS9YFa5iW-0" />
        <mxCell id="MPpw_sk_U3eVS9YFa5iW-25" style="edgeStyle=orthogonalEdgeStyle;orthogonalLoop=1;jettySize=auto;html=1;exitX=1;exitY=0.5;exitDx=0;exitDy=0;entryX=0;entryY=0.5;entryDx=0;entryDy=0;fontSize=14;curved=1;fillColor=#dae8fc;strokeColor=#6c8ebf;" edge="1" parent="MPpw_sk_U3eVS9YFa5iW-1" source="MPpw_sk_U3eVS9YFa5iW-2" target="MPpw_sk_U3eVS9YFa5iW-20">
          <mxGeometry relative="1" as="geometry">
            <Array as="points">
              <mxPoint x="220" y="100" />
              <mxPoint x="220" y="140" />
            </Array>
          </mxGeometry>
        </mxCell>
        <mxCell id="MPpw_sk_U3eVS9YFa5iW-27" style="edgeStyle=orthogonalEdgeStyle;curved=1;orthogonalLoop=1;jettySize=auto;html=1;exitX=1;exitY=0.5;exitDx=0;exitDy=0;entryX=0;entryY=0.5;entryDx=0;entryDy=0;fontSize=14;fillColor=#dae8fc;strokeColor=#6c8ebf;" edge="1" parent="MPpw_sk_U3eVS9YFa5iW-1" source="MPpw_sk_U3eVS9YFa5iW-2" target="MPpw_sk_U3eVS9YFa5iW-23">
          <mxGeometry relative="1" as="geometry">
            <Array as="points">
              <mxPoint x="220" y="100" />
              <mxPoint x="220" y="220" />
            </Array>
          </mxGeometry>
        </mxCell>
        <mxCell id="MPpw_sk_U3eVS9YFa5iW-74" style="edgeStyle=orthogonalEdgeStyle;curved=1;orthogonalLoop=1;jettySize=auto;html=1;exitX=1;exitY=0.5;exitDx=0;exitDy=0;entryX=0;entryY=0.5;entryDx=0;entryDy=0;fontFamily=Computer Modern;fontSize=14;fillColor=#dae8fc;strokeColor=#6c8ebf;" edge="1" parent="MPpw_sk_U3eVS9YFa5iW-1" source="MPpw_sk_U3eVS9YFa5iW-2" target="MPpw_sk_U3eVS9YFa5iW-21">
          <mxGeometry relative="1" as="geometry">
            <Array as="points">
              <mxPoint x="220" y="100" />
              <mxPoint x="220" y="180" />
            </Array>
          </mxGeometry>
        </mxCell>
        <mxCell id="MPpw_sk_U3eVS9YFa5iW-2" value="" style="rounded=0;whiteSpace=wrap;html=1;fillColor=#f5f5f5;strokeColor=#666666;fontColor=#333333;" vertex="1" parent="MPpw_sk_U3eVS9YFa5iW-1">
          <mxGeometry x="200" y="90" width="10" height="20" as="geometry" />
        </mxCell>
        <mxCell id="MPpw_sk_U3eVS9YFa5iW-4" value="" style="endArrow=none;html=1;" edge="1" parent="MPpw_sk_U3eVS9YFa5iW-1">
          <mxGeometry width="50" height="50" relative="1" as="geometry">
            <mxPoint x="200" y="560" as="sourcePoint" />
            <mxPoint x="200" y="80" as="targetPoint" />
          </mxGeometry>
        </mxCell>
        <mxCell id="MPpw_sk_U3eVS9YFa5iW-5" value="" style="endArrow=none;html=1;" edge="1" parent="MPpw_sk_U3eVS9YFa5iW-1">
          <mxGeometry width="50" height="50" relative="1" as="geometry">
            <mxPoint x="240" y="560" as="sourcePoint" />
            <mxPoint x="240" y="80" as="targetPoint" />
          </mxGeometry>
        </mxCell>
        <mxCell id="MPpw_sk_U3eVS9YFa5iW-6" value="" style="endArrow=none;html=1;" edge="1" parent="MPpw_sk_U3eVS9YFa5iW-1">
          <mxGeometry width="50" height="50" relative="1" as="geometry">
            <mxPoint x="280" y="560" as="sourcePoint" />
            <mxPoint x="280" y="80" as="targetPoint" />
          </mxGeometry>
        </mxCell>
        <mxCell id="MPpw_sk_U3eVS9YFa5iW-7" value="" style="endArrow=none;html=1;" edge="1" parent="MPpw_sk_U3eVS9YFa5iW-1">
          <mxGeometry width="50" height="50" relative="1" as="geometry">
            <mxPoint x="320" y="560" as="sourcePoint" />
            <mxPoint x="320" y="80" as="targetPoint" />
          </mxGeometry>
        </mxCell>
        <mxCell id="MPpw_sk_U3eVS9YFa5iW-8" value="" style="endArrow=none;html=1;" edge="1" parent="MPpw_sk_U3eVS9YFa5iW-1">
          <mxGeometry width="50" height="50" relative="1" as="geometry">
            <mxPoint x="360" y="560" as="sourcePoint" />
            <mxPoint x="360" y="80" as="targetPoint" />
          </mxGeometry>
        </mxCell>
        <mxCell id="MPpw_sk_U3eVS9YFa5iW-9" value="" style="endArrow=none;html=1;" edge="1" parent="MPpw_sk_U3eVS9YFa5iW-1">
          <mxGeometry width="50" height="50" relative="1" as="geometry">
            <mxPoint x="400" y="560" as="sourcePoint" />
            <mxPoint x="400" y="80" as="targetPoint" />
          </mxGeometry>
        </mxCell>
        <mxCell id="MPpw_sk_U3eVS9YFa5iW-10" value="" style="endArrow=none;html=1;" edge="1" parent="MPpw_sk_U3eVS9YFa5iW-1">
          <mxGeometry width="50" height="50" relative="1" as="geometry">
            <mxPoint x="440" y="560" as="sourcePoint" />
            <mxPoint x="440" y="80" as="targetPoint" />
          </mxGeometry>
        </mxCell>
        <mxCell id="MPpw_sk_U3eVS9YFa5iW-11" value="" style="endArrow=none;html=1;" edge="1" parent="MPpw_sk_U3eVS9YFa5iW-1">
          <mxGeometry width="50" height="50" relative="1" as="geometry">
            <mxPoint x="480" y="560" as="sourcePoint" />
            <mxPoint x="480" y="80" as="targetPoint" />
          </mxGeometry>
        </mxCell>
        <mxCell id="MPpw_sk_U3eVS9YFa5iW-12" value="" style="endArrow=none;html=1;" edge="1" parent="MPpw_sk_U3eVS9YFa5iW-1">
          <mxGeometry width="50" height="50" relative="1" as="geometry">
            <mxPoint x="520" y="560" as="sourcePoint" />
            <mxPoint x="520" y="80" as="targetPoint" />
          </mxGeometry>
        </mxCell>
        <mxCell id="MPpw_sk_U3eVS9YFa5iW-13" value="" style="endArrow=none;html=1;" edge="1" parent="MPpw_sk_U3eVS9YFa5iW-1">
          <mxGeometry width="50" height="50" relative="1" as="geometry">
            <mxPoint x="560" y="560" as="sourcePoint" />
            <mxPoint x="560" y="80" as="targetPoint" />
          </mxGeometry>
        </mxCell>
        <mxCell id="MPpw_sk_U3eVS9YFa5iW-14" value="" style="endArrow=none;html=1;" edge="1" parent="MPpw_sk_U3eVS9YFa5iW-1">
          <mxGeometry width="50" height="50" relative="1" as="geometry">
            <mxPoint x="600" y="560" as="sourcePoint" />
            <mxPoint x="600" y="80" as="targetPoint" />
          </mxGeometry>
        </mxCell>
        <mxCell id="MPpw_sk_U3eVS9YFa5iW-16" value="Read Inputs" style="text;html=1;strokeColor=none;fillColor=none;align=right;verticalAlign=middle;whiteSpace=wrap;rounded=0;fontSize=14;fontFamily=Computer Modern;" vertex="1" parent="MPpw_sk_U3eVS9YFa5iW-1">
          <mxGeometry x="130" y="80" width="70" height="40" as="geometry" />
        </mxCell>
        <mxCell id="MPpw_sk_U3eVS9YFa5iW-17" value="X-Plane Collisions" style="text;html=1;strokeColor=none;fillColor=none;align=right;verticalAlign=middle;whiteSpace=wrap;rounded=0;fontSize=14;fontFamily=Computer Modern;" vertex="1" parent="MPpw_sk_U3eVS9YFa5iW-1">
          <mxGeometry x="85" y="120" width="115" height="40" as="geometry" />
        </mxCell>
        <mxCell id="MPpw_sk_U3eVS9YFa5iW-79" style="edgeStyle=orthogonalEdgeStyle;curved=1;orthogonalLoop=1;jettySize=auto;html=1;exitX=1;exitY=0.5;exitDx=0;exitDy=0;fontFamily=Computer Modern;fontSize=14;entryX=0;entryY=0.5;entryDx=0;entryDy=0;fillColor=#dae8fc;strokeColor=#6c8ebf;" edge="1" parent="MPpw_sk_U3eVS9YFa5iW-1" source="MPpw_sk_U3eVS9YFa5iW-20" target="MPpw_sk_U3eVS9YFa5iW-75">
          <mxGeometry relative="1" as="geometry">
            <mxPoint x="630" y="139.85714285714283" as="targetPoint" />
            <Array as="points">
              <mxPoint x="820" y="140" />
              <mxPoint x="820" y="260" />
            </Array>
          </mxGeometry>
        </mxCell>
        <mxCell id="MPpw_sk_U3eVS9YFa5iW-20" value="" style="rounded=0;whiteSpace=wrap;html=1;fontSize=14;align=right;fillColor=#f5f5f5;strokeColor=#666666;fontColor=#333333;" vertex="1" parent="MPpw_sk_U3eVS9YFa5iW-1">
          <mxGeometry x="240" y="130" width="170" height="20" as="geometry" />
        </mxCell>
        <mxCell id="MPpw_sk_U3eVS9YFa5iW-78" style="edgeStyle=orthogonalEdgeStyle;curved=1;orthogonalLoop=1;jettySize=auto;html=1;exitX=1;exitY=0.5;exitDx=0;exitDy=0;entryX=0;entryY=0.5;entryDx=0;entryDy=0;fontFamily=Computer Modern;fontSize=14;fillColor=#dae8fc;strokeColor=#6c8ebf;" edge="1" parent="MPpw_sk_U3eVS9YFa5iW-1" source="MPpw_sk_U3eVS9YFa5iW-21" target="MPpw_sk_U3eVS9YFa5iW-75">
          <mxGeometry relative="1" as="geometry">
            <Array as="points">
              <mxPoint x="820" y="180" />
              <mxPoint x="820" y="260" />
            </Array>
          </mxGeometry>
        </mxCell>
        <mxCell id="MPpw_sk_U3eVS9YFa5iW-21" value="" style="rounded=0;whiteSpace=wrap;html=1;fontSize=14;align=right;fillColor=#f5f5f5;strokeColor=#666666;fontColor=#333333;" vertex="1" parent="MPpw_sk_U3eVS9YFa5iW-1">
          <mxGeometry x="441" y="170" width="170" height="20" as="geometry" />
        </mxCell>
        <mxCell id="MPpw_sk_U3eVS9YFa5iW-22" value="Y-Plane Collisions" style="text;html=1;strokeColor=none;fillColor=none;align=right;verticalAlign=middle;whiteSpace=wrap;rounded=0;fontSize=14;fontFamily=Computer Modern;" vertex="1" parent="MPpw_sk_U3eVS9YFa5iW-1">
          <mxGeometry x="84" y="160" width="116" height="40" as="geometry" />
        </mxCell>
        <mxCell id="MPpw_sk_U3eVS9YFa5iW-24" value="Z-Plane Collisions" style="text;html=1;strokeColor=none;fillColor=none;align=right;verticalAlign=middle;whiteSpace=wrap;rounded=0;fontSize=14;fontFamily=Computer Modern;" vertex="1" parent="MPpw_sk_U3eVS9YFa5iW-1">
          <mxGeometry x="88" y="200" width="112" height="40" as="geometry" />
        </mxCell>
        <mxCell id="MPpw_sk_U3eVS9YFa5iW-41" value="Total Collisions (OR operation)" style="text;html=1;strokeColor=none;fillColor=none;align=right;verticalAlign=middle;whiteSpace=wrap;rounded=0;fontSize=14;fontFamily=Computer Modern;" vertex="1" parent="MPpw_sk_U3eVS9YFa5iW-1">
          <mxGeometry x="88" y="240" width="112" height="40" as="geometry" />
        </mxCell>
        <mxCell id="MPpw_sk_U3eVS9YFa5iW-50" style="edgeStyle=orthogonalEdgeStyle;orthogonalLoop=1;jettySize=auto;html=1;exitX=1;exitY=0.5;exitDx=0;exitDy=0;entryX=0;entryY=0.5;entryDx=0;entryDy=0;fontSize=14;curved=1;fillColor=#dae8fc;strokeColor=#6c8ebf;" edge="1" parent="MPpw_sk_U3eVS9YFa5iW-1" source="MPpw_sk_U3eVS9YFa5iW-53" target="MPpw_sk_U3eVS9YFa5iW-57">
          <mxGeometry relative="1" as="geometry">
            <Array as="points">
              <mxPoint x="221" y="340" />
              <mxPoint x="221" y="380" />
            </Array>
          </mxGeometry>
        </mxCell>
        <mxCell id="MPpw_sk_U3eVS9YFa5iW-51" style="edgeStyle=orthogonalEdgeStyle;curved=1;orthogonalLoop=1;jettySize=auto;html=1;exitX=1;exitY=0.5;exitDx=0;exitDy=0;entryX=0;entryY=0.5;entryDx=0;entryDy=0;fontSize=14;fillColor=#dae8fc;strokeColor=#6c8ebf;" edge="1" parent="MPpw_sk_U3eVS9YFa5iW-1" source="MPpw_sk_U3eVS9YFa5iW-53" target="MPpw_sk_U3eVS9YFa5iW-59">
          <mxGeometry relative="1" as="geometry">
            <Array as="points">
              <mxPoint x="221" y="340" />
              <mxPoint x="221" y="420" />
            </Array>
          </mxGeometry>
        </mxCell>
        <mxCell id="MPpw_sk_U3eVS9YFa5iW-52" style="edgeStyle=orthogonalEdgeStyle;curved=1;orthogonalLoop=1;jettySize=auto;html=1;exitX=1;exitY=0.5;exitDx=0;exitDy=0;entryX=0;entryY=0.5;entryDx=0;entryDy=0;fontSize=14;fillColor=#dae8fc;strokeColor=#6c8ebf;" edge="1" parent="MPpw_sk_U3eVS9YFa5iW-1" source="MPpw_sk_U3eVS9YFa5iW-53" target="MPpw_sk_U3eVS9YFa5iW-62">
          <mxGeometry relative="1" as="geometry">
            <Array as="points">
              <mxPoint x="221" y="340" />
              <mxPoint x="221" y="460" />
            </Array>
          </mxGeometry>
        </mxCell>
        <mxCell id="MPpw_sk_U3eVS9YFa5iW-53" value="" style="rounded=0;whiteSpace=wrap;html=1;fillColor=#f5f5f5;strokeColor=#666666;fontColor=#333333;" vertex="1" parent="MPpw_sk_U3eVS9YFa5iW-1">
          <mxGeometry x="201" y="330" width="10" height="20" as="geometry" />
        </mxCell>
        <mxCell id="MPpw_sk_U3eVS9YFa5iW-54" value="Read Inputs" style="text;html=1;strokeColor=none;fillColor=none;align=right;verticalAlign=middle;whiteSpace=wrap;rounded=0;fontSize=14;fontFamily=Computer Modern;" vertex="1" parent="MPpw_sk_U3eVS9YFa5iW-1">
          <mxGeometry x="131" y="320" width="70" height="40" as="geometry" />
        </mxCell>
        <mxCell id="MPpw_sk_U3eVS9YFa5iW-55" value="X-Plane Collisions" style="text;html=1;strokeColor=none;fillColor=none;align=right;verticalAlign=middle;whiteSpace=wrap;rounded=0;fontSize=14;fontFamily=Computer Modern;" vertex="1" parent="MPpw_sk_U3eVS9YFa5iW-1">
          <mxGeometry x="86" y="360" width="115" height="40" as="geometry" />
        </mxCell>
        <mxCell id="MPpw_sk_U3eVS9YFa5iW-56" style="edgeStyle=orthogonalEdgeStyle;curved=1;orthogonalLoop=1;jettySize=auto;html=1;exitX=1;exitY=0.5;exitDx=0;exitDy=0;entryX=0;entryY=0.5;entryDx=0;entryDy=0;fontFamily=Computer Modern;fontSize=14;fillColor=#dae8fc;strokeColor=#6c8ebf;" edge="1" parent="MPpw_sk_U3eVS9YFa5iW-1" source="MPpw_sk_U3eVS9YFa5iW-57" target="MPpw_sk_U3eVS9YFa5iW-65">
          <mxGeometry relative="1" as="geometry">
            <Array as="points">
              <mxPoint x="421" y="380" />
              <mxPoint x="421" y="500" />
            </Array>
          </mxGeometry>
        </mxCell>
        <mxCell id="MPpw_sk_U3eVS9YFa5iW-57" value="" style="rounded=0;whiteSpace=wrap;html=1;fontSize=14;align=right;fillColor=#f5f5f5;strokeColor=#666666;fontColor=#333333;" vertex="1" parent="MPpw_sk_U3eVS9YFa5iW-1">
          <mxGeometry x="241" y="370" width="170" height="20" as="geometry" />
        </mxCell>
        <mxCell id="MPpw_sk_U3eVS9YFa5iW-58" style="edgeStyle=orthogonalEdgeStyle;curved=1;orthogonalLoop=1;jettySize=auto;html=1;exitX=1;exitY=0.5;exitDx=0;exitDy=0;entryX=0;entryY=0.5;entryDx=0;entryDy=0;fontFamily=Computer Modern;fontSize=14;fillColor=#dae8fc;strokeColor=#6c8ebf;" edge="1" parent="MPpw_sk_U3eVS9YFa5iW-1" source="MPpw_sk_U3eVS9YFa5iW-59" target="MPpw_sk_U3eVS9YFa5iW-65">
          <mxGeometry relative="1" as="geometry">
            <Array as="points">
              <mxPoint x="421" y="420" />
              <mxPoint x="421" y="500" />
            </Array>
          </mxGeometry>
        </mxCell>
        <mxCell id="MPpw_sk_U3eVS9YFa5iW-59" value="" style="rounded=0;whiteSpace=wrap;html=1;fontSize=14;align=right;fillColor=#f5f5f5;strokeColor=#666666;fontColor=#333333;" vertex="1" parent="MPpw_sk_U3eVS9YFa5iW-1">
          <mxGeometry x="241" y="410" width="170" height="20" as="geometry" />
        </mxCell>
        <mxCell id="MPpw_sk_U3eVS9YFa5iW-60" value="Y-Plane Collisions" style="text;html=1;strokeColor=none;fillColor=none;align=right;verticalAlign=middle;whiteSpace=wrap;rounded=0;fontSize=14;fontFamily=Computer Modern;" vertex="1" parent="MPpw_sk_U3eVS9YFa5iW-1">
          <mxGeometry x="85" y="400" width="116" height="40" as="geometry" />
        </mxCell>
        <mxCell id="MPpw_sk_U3eVS9YFa5iW-61" style="edgeStyle=orthogonalEdgeStyle;curved=1;orthogonalLoop=1;jettySize=auto;html=1;exitX=1;exitY=0.5;exitDx=0;exitDy=0;entryX=0;entryY=0.5;entryDx=0;entryDy=0;fontFamily=Computer Modern;fontSize=14;fillColor=#dae8fc;strokeColor=#6c8ebf;" edge="1" parent="MPpw_sk_U3eVS9YFa5iW-1" source="MPpw_sk_U3eVS9YFa5iW-62" target="MPpw_sk_U3eVS9YFa5iW-65">
          <mxGeometry relative="1" as="geometry">
            <Array as="points">
              <mxPoint x="421" y="460" />
              <mxPoint x="421" y="500" />
            </Array>
          </mxGeometry>
        </mxCell>
        <mxCell id="MPpw_sk_U3eVS9YFa5iW-62" value="" style="rounded=0;whiteSpace=wrap;html=1;fontSize=14;align=right;fillColor=#f5f5f5;strokeColor=#666666;fontColor=#333333;" vertex="1" parent="MPpw_sk_U3eVS9YFa5iW-1">
          <mxGeometry x="241" y="450" width="170" height="20" as="geometry" />
        </mxCell>
        <mxCell id="MPpw_sk_U3eVS9YFa5iW-63" value="Z-Plane Collisions" style="text;html=1;strokeColor=none;fillColor=none;align=right;verticalAlign=middle;whiteSpace=wrap;rounded=0;fontSize=14;fontFamily=Computer Modern;" vertex="1" parent="MPpw_sk_U3eVS9YFa5iW-1">
          <mxGeometry x="89" y="440" width="112" height="40" as="geometry" />
        </mxCell>
        <mxCell id="MPpw_sk_U3eVS9YFa5iW-64" value="Total Collisions (OR operation)" style="text;html=1;strokeColor=none;fillColor=none;align=right;verticalAlign=middle;whiteSpace=wrap;rounded=0;fontSize=14;fontFamily=Computer Modern;" vertex="1" parent="MPpw_sk_U3eVS9YFa5iW-1">
          <mxGeometry x="89" y="480" width="112" height="40" as="geometry" />
        </mxCell>
        <mxCell id="MPpw_sk_U3eVS9YFa5iW-65" value="" style="rounded=0;whiteSpace=wrap;html=1;fillColor=#f5f5f5;strokeColor=#666666;fontColor=#333333;" vertex="1" parent="MPpw_sk_U3eVS9YFa5iW-1">
          <mxGeometry x="441" y="490" width="10" height="20" as="geometry" />
        </mxCell>
        <mxCell id="MPpw_sk_U3eVS9YFa5iW-67" value="" style="endArrow=none;html=1;" edge="1" parent="MPpw_sk_U3eVS9YFa5iW-1">
          <mxGeometry width="50" height="50" relative="1" as="geometry">
            <mxPoint x="640" y="560" as="sourcePoint" />
            <mxPoint x="640" y="80" as="targetPoint" />
          </mxGeometry>
        </mxCell>
        <mxCell id="MPpw_sk_U3eVS9YFa5iW-68" value="" style="endArrow=none;html=1;" edge="1" parent="MPpw_sk_U3eVS9YFa5iW-1">
          <mxGeometry width="50" height="50" relative="1" as="geometry">
            <mxPoint x="680" y="560" as="sourcePoint" />
            <mxPoint x="680" y="80" as="targetPoint" />
          </mxGeometry>
        </mxCell>
        <mxCell id="MPpw_sk_U3eVS9YFa5iW-69" value="" style="endArrow=none;html=1;" edge="1" parent="MPpw_sk_U3eVS9YFa5iW-1">
          <mxGeometry width="50" height="50" relative="1" as="geometry">
            <mxPoint x="720" y="560" as="sourcePoint" />
            <mxPoint x="720" y="80" as="targetPoint" />
          </mxGeometry>
        </mxCell>
        <mxCell id="MPpw_sk_U3eVS9YFa5iW-70" value="" style="endArrow=none;html=1;" edge="1" parent="MPpw_sk_U3eVS9YFa5iW-1">
          <mxGeometry width="50" height="50" relative="1" as="geometry">
            <mxPoint x="760" y="560" as="sourcePoint" />
            <mxPoint x="760" y="80" as="targetPoint" />
          </mxGeometry>
        </mxCell>
        <mxCell id="MPpw_sk_U3eVS9YFa5iW-71" value="" style="endArrow=none;html=1;" edge="1" parent="MPpw_sk_U3eVS9YFa5iW-1">
          <mxGeometry width="50" height="50" relative="1" as="geometry">
            <mxPoint x="800" y="560" as="sourcePoint" />
            <mxPoint x="800" y="80" as="targetPoint" />
          </mxGeometry>
        </mxCell>
        <mxCell id="MPpw_sk_U3eVS9YFa5iW-72" value="" style="endArrow=none;html=1;" edge="1" parent="MPpw_sk_U3eVS9YFa5iW-1">
          <mxGeometry width="50" height="50" relative="1" as="geometry">
            <mxPoint x="840" y="560" as="sourcePoint" />
            <mxPoint x="840" y="80" as="targetPoint" />
          </mxGeometry>
        </mxCell>
        <mxCell id="MPpw_sk_U3eVS9YFa5iW-73" value="" style="endArrow=none;html=1;" edge="1" parent="MPpw_sk_U3eVS9YFa5iW-1">
          <mxGeometry width="50" height="50" relative="1" as="geometry">
            <mxPoint x="880" y="560" as="sourcePoint" />
            <mxPoint x="880" y="80" as="targetPoint" />
          </mxGeometry>
        </mxCell>
        <mxCell id="MPpw_sk_U3eVS9YFa5iW-77" style="edgeStyle=orthogonalEdgeStyle;curved=1;orthogonalLoop=1;jettySize=auto;html=1;exitX=1;exitY=0.5;exitDx=0;exitDy=0;entryX=0;entryY=0.5;entryDx=0;entryDy=0;fontFamily=Computer Modern;fontSize=14;fillColor=#dae8fc;strokeColor=#6c8ebf;" edge="1" parent="MPpw_sk_U3eVS9YFa5iW-1" source="MPpw_sk_U3eVS9YFa5iW-23" target="MPpw_sk_U3eVS9YFa5iW-75">
          <mxGeometry relative="1" as="geometry">
            <Array as="points">
              <mxPoint x="820" y="220" />
              <mxPoint x="820" y="260" />
            </Array>
          </mxGeometry>
        </mxCell>
        <mxCell id="MPpw_sk_U3eVS9YFa5iW-23" value="" style="rounded=0;whiteSpace=wrap;html=1;fontSize=14;align=right;fillColor=#f5f5f5;strokeColor=#666666;fontColor=#333333;" vertex="1" parent="MPpw_sk_U3eVS9YFa5iW-1">
          <mxGeometry x="640" y="210" width="170" height="20" as="geometry" />
        </mxCell>
        <mxCell id="MPpw_sk_U3eVS9YFa5iW-75" value="" style="rounded=0;whiteSpace=wrap;html=1;fillColor=#f5f5f5;strokeColor=#666666;fontColor=#333333;" vertex="1" parent="MPpw_sk_U3eVS9YFa5iW-1">
          <mxGeometry x="840" y="250" width="10" height="20" as="geometry" />
        </mxCell>
      </root>
    </mxGraphModel>
  </diagram>
</mxfile>
